<svg id="Capa_1" height="512" viewBox="0 0 512 512" width="512"
    xmlns="http://www.w3.org/2000/svg" transform=" translate(-100) rotate(90 50 50)">
    <g>
        <path
            d="m306.431 389.094s20.802 17.899 20.802 46.604c0 20.052-12.714 37.028-20.38 45.441-2.74 3.008-7.595 2.548-9.727-.918l-.006-.009c-2.159-3.508-7.098-3.922-9.811-.822l-26.707 30.522c-2.437 2.785-6.768 2.785-9.205 0l-26.707-30.522c-2.713-3.1-7.652-2.686-9.811.822l-.006.009c-2.132 3.465-6.987 3.925-9.727.918-7.665-8.413-20.38-25.388-20.38-45.441 0-28.705 20.802-46.604 20.802-46.604z"
            fill="#f6e266" />
        <path
            d="m307.758 390.34c1.183 5.352 1.825 10.907 1.825 16.614 0 42.359-34.339 76.697-76.697 76.697-1.544 0-3.074-.059-4.596-.149l23.108 26.409c2.437 2.785 6.768 2.785 9.205 0l26.707-30.522c2.713-3.1 7.652-2.686 9.811.822l.006.009c2.132 3.465 6.987 3.925 9.727.918 7.665-8.413 20.38-25.389 20.38-45.44-.001-24.293-14.896-40.843-19.476-45.358z"
            fill="#f1d333" />
        <path
            d="m273.861 389.094s13.658 13.658 13.658 35.722c0 21.357-20.838 34.378-28.628 38.5-1.807.956-3.976.956-5.784 0-7.79-4.122-28.628-17.143-28.628-38.5 0-22.064 13.658-35.722 13.658-35.722z"
            fill="#e49542" />
        <path
            d="m306.431 257.763v131.331h73.651c5.744 0 10.401-4.657 10.401-10.401v-66.583c0-3.722-1.989-7.161-5.216-9.017z"
            fill="#dd5790" />
        <path d="m366.863 292.511-60.432-34.749v131.331h27.17c6.814-17.284 21.229-55.292 33.262-96.582z"
            fill="#da387d" />
        <path
            d="m205.569 257.763v131.331h-73.651c-5.744 0-10.401-4.657-10.401-10.401v-66.583c0-3.722 1.989-7.161 5.216-9.017z"
            fill="#dd5790" />
        <path d="m145.137 292.511 60.432-34.749v131.331h-27.17c-6.814-17.284-21.229-55.292-33.262-96.582z"
            fill="#da387d" />
        <path
            d="m306.431 389.094s54.634-132.382 54.634-201.725c0-113.816-77.661-171.715-99.445-185.717-3.428-2.203-7.812-2.203-11.24 0-21.784 14.002-99.445 71.901-99.445 185.717 0 69.343 54.634 201.725 54.634 201.725z"
            fill="#ecf4ff" />
        <path
            d="m200.616 334.448c-5.349 0-10.635-.307-15.849-.893 11.173 32.203 20.802 55.538 20.802 55.538h100.862s54.634-132.382 54.634-201.725c0-6.521-.264-12.852-.749-19.009-7.802 93.204-76.319 166.089-159.7 166.089z"
            fill="#cbe2ff" />
        <path
            d="m176.657 82.304h158.685c-24.657-45.969-60.082-71.876-73.707-80.64-3.437-2.211-7.834-2.211-11.271 0-13.625 8.765-49.049 34.672-73.707 80.64z"
            fill="#dd5790" />
        <circle cx="256" cy="209.433" fill="#dd5790" r="63.039" />
        <path
            d="m292.102 157.769c7.16 10.228 11.375 22.669 11.375 36.101 0 34.816-28.223 63.039-63.039 63.039-13.432 0-25.874-4.214-36.101-11.375 11.398 16.281 30.281 26.938 51.664 26.938 34.815 0 63.039-28.223 63.039-63.039-.001-21.383-10.657-40.266-26.938-51.664z"
            fill="#da387d" />
        <circle cx="256" cy="209.433" fill="#9dc6fb" r="29.418" />
    </g>
</svg>